<?xml version="1.0" encoding="UTF-8"?>
<svg width="14px" height="15px" viewBox="0 0 14 15" version="1.1" xmlns="http://www.w3.org/2000/svg" xmlns:xlink="http://www.w3.org/1999/xlink">
    <!-- Generator: Sketch 55.2 (78181) - https://sketchapp.com -->
    <title>Group 9</title>
    <desc>Created with Sketch.</desc>
    <g id="Group-9" stroke="none" stroke-width="1" fill="none" fill-rule="evenodd">
        <g>
            <rect id="Rectangle" x="0" y="0" width="14" height="14"></rect>
            <path d="M7,3 C6.17157288,3 5.5,2.32842712 5.5,1.5 C5.5,0.671572875 6.17157288,0 7,0 C7.82842712,0 8.5,0.671572875 8.5,1.5 C8.5,2.32842712 7.82842712,3 7,3 Z M7,9 C6.17157288,9 5.5,8.32842712 5.5,7.5 C5.5,6.67157288 6.17157288,6 7,6 C7.82842712,6 8.5,6.67157288 8.5,7.5 C8.5,8.32842712 7.82842712,9 7,9 Z M7,15 C6.17157288,15 5.5,14.3284271 5.5,13.5 C5.5,12.6715729 6.17157288,12 7,12 C7.82842712,12 8.5,12.6715729 8.5,13.5 C8.5,14.3284271 7.82842712,15 7,15 Z" id="Combined-Shape" fill="#CCD0D7"></path>
        </g>
    </g>
</svg>