<?xml version="1.0" encoding="UTF-8"?>
<svg width="32px" height="32px" viewBox="0 0 32 32" version="1.1" xmlns="http://www.w3.org/2000/svg" xmlns:xlink="http://www.w3.org/1999/xlink">
    <!-- Generator: Sketch 58 (84663) - https://sketch.com -->
    <title>32PX(16PX)iconfont/popular1</title>
    <desc>Created with Sketch.</desc>
    <g id="32PX(16PX)iconfont/popular1" stroke="none" stroke-width="1" fill="none" fill-rule="evenodd">
        <path d="M13,6 C17.418278,6 21,9.581722 21,14 C21,16.8689398 19.4898202,19.3851582 17.221038,20.7970776 C19.2239429,21.5833934 20.8838284,22.8953292 21.8527105,24.4778491 C22.1410865,24.9488669 21.993026,25.5644772 21.5220082,25.8528531 C21.0509905,26.1412291 20.4353802,25.9931686 20.1470042,25.5221509 C18.9216043,23.5206486 16.1041275,22.0000233 12.9999287,22 C9.89572985,22.0000233 7.07825304,23.5206486 5.85285314,25.5221509 C5.56447717,25.9931686 4.94886691,26.1412291 4.47784913,25.8528531 C4.00683135,25.5644772 3.8587709,24.9488669 4.14714686,24.4778491 C5.11604309,22.8953062 6.77596279,21.5833552 8.7789068,20.7970433 C6.51015536,19.3851174 5,16.8689165 5,14 C5,9.581722 8.581722,6 13,6 Z M22,8 C25.3137085,8 28,10.6862915 28,14 C28,15.952538 27.0673396,17.6872416 25.623216,18.7829134 C26.3842348,19.1569623 27.0712308,19.6617666 27.7044457,20.2902421 C28.0964342,20.6792967 28.0988125,21.3124572 27.7097579,21.7044457 C27.3207033,22.0964342 26.6875428,22.0988125 26.2955543,21.7097579 C25.1528328,20.5755891 23.8422309,20 22,20 C21.7407033,20 21.4919387,20.011403 21.2526919,20.0341615 C21.9536809,19.4234415 22.54725,18.692573 23.0013102,17.873645 C24.7258726,17.4291467 26,15.8633676 26,14 C26,12.1366324 24.7258726,10.5708533 23.0013102,10.126355 C22.5646721,9.33884889 21.9990254,8.63277433 21.3329056,8.03666649 C21.5519328,8.0124384 21.7745138,8 22,8 Z M13,8 C9.6862915,8 7,10.6862915 7,14 C7,17.3137085 9.6862915,20 13,20 C16.3137085,20 19,17.3137085 19,14 C19,10.6862915 16.3137085,8 13,8 Z" id="Combined-Shape" fill="#99A2AA" fill-rule="nonzero"></path>
    </g>
</svg>