<?xml version="1.0" encoding="UTF-8"?>
<svg width="18px" height="19px" viewBox="0 0 18 19" version="1.1" xmlns="http://www.w3.org/2000/svg" xmlns:xlink="http://www.w3.org/1999/xlink">
    <!-- Generator: Sketch 63.1 (92452) - https://sketch.com -->
    <title>提示</title>
    <desc>Created with Sketch.</desc>
    <g id="页面-2" stroke="none" stroke-width="1" fill="none" fill-rule="evenodd">
        <g id="5排行榜" transform="translate(-317.000000, -348.000000)" fill="#505050">
            <g id="ic_tips" transform="translate(317.000000, 348.000000)">
                <path d="M9,2 C12.8659932,2 16,5.13400675 16,9 C16,12.8659932 12.8659932,16 9,16 C5.13400675,16 2,12.8659932 2,9 C2,5.13400675 5.13400675,2 9,2 Z M9,3 C5.6862915,3 3,5.6862915 3,9 C3,12.3137085 5.6862915,15 9,15 C12.3137085,15 15,12.3137085 15,9 C15,5.6862915 12.3137085,3 9,3 Z" id="形状结合"></path>
                <rect id="Path" x="8.18181818" y="11.4545455" width="1.63636364" height="1.63636364" rx="0.818181818"></rect>
                <rect id="Rectangle-3" x="8.18181818" y="4.90909091" width="1.63636364" height="5.72727273" rx="0.818181818"></rect>
            </g>
        </g>
    </g>
</svg>