<?xml version="1.0" encoding="UTF-8"?>
<svg width="166px" height="179px" viewBox="0 0 166 179" version="1.1" xmlns="http://www.w3.org/2000/svg" xmlns:xlink="http://www.w3.org/1999/xlink">
    <!-- Generator: Sketch 51.1 (57501) - http://www.bohemiancoding.com/sketch -->
    <title>se-slim-mobile-video-card-error_dark</title>
    <desc>Created with Sketch.</desc>
    <defs>
        <path d="M0,7.9998069 C0,3.58163555 3.5826363,0 8.00652504,0 L157.993475,0 C162.415357,0 166,3.58754848 166,7.9998069 L166,106 L0,106 L0,7.9998069 Z" id="path-1"></path>
    </defs>
    <g id="Page-1" stroke="none" stroke-width="1" fill="none" fill-rule="evenodd">
        <g id="11.视频聚合卡片" transform="translate(-484.000000, -266.000000)">
            <g id="se-slim-mobile-video-card-error_dark" transform="translate(484.000000, 266.000000)">
                <rect id="bg" stroke="#333333" stroke-width="0.5" fill="#1D1D1D" x="0.25" y="0.25" width="165.5" height="178.5" rx="8"></rect>
                <g id="tag" transform="translate(10.000000, 155.000000)">
                    <rect id="bg" stroke="#FB7299" stroke-width="0.5" x="0.25" y="0.25" width="27.5" height="14.5" rx="2"></rect>
                    <text id="视频" font-family="HYQiHei-EZS, HYQiHei" font-size="10" font-weight="300" fill="#FB7299">
                        <tspan x="4" y="11">视频</tspan>
                    </text>
                </g>
                <g id="icon_up" transform="translate(44.000000, 154.000000)" fill="#999999">
                    <path d="M14,11.4736239 C14,12.3216743 13.35,12.9701835 12.5,12.9701835 L3.5,12.9701835 C2.65,12.9701835 2,12.3216743 2,11.4736239 L2,4.4896789 C2,3.64162844 2.65,2.99311927 3.5,2.99311927 L12.5,2.99311927 C13.35,2.99311927 14,3.64162844 14,4.4896789 L14,11.4736239 Z M12.5,1.99541284 C13.9,1.99541284 15,3.09288991 15,4.4896789 L15,11.4736239 C15,12.8704128 13.9,13.9678899 12.5,13.9678899 L3.5,13.9678899 C2.1,13.9678899 1,12.8704128 1,11.4736239 L1,4.4896789 C1,3.09288991 2.1,1.99541284 3.5,1.99541284 L12.5,1.99541284 Z M11.0498,7.88178096 L9.5998,7.88178096 L9.5998,5.98613876 L11.0498,5.98613876 C11.5498,5.98613876 11.9998,6.18568005 11.9998,6.93395986 C11.9998,7.63235436 11.4998,7.88178096 11.0498,7.88178096 Z M11.0998,5.08820298 L8.6498,5.08820298 L8.6498,10.9746709 L9.5998,10.9746709 L9.5998,8.6799461 L11.0998,8.6799461 C12.6998,8.6799461 12.9998,7.63235436 12.9998,6.88407454 C12.9998,6.18568005 12.6998,5.08820298 11.0998,5.08820298 Z M6.5498,8.48040482 C6.5498,9.27856995 6.4998,10.1765057 5.2498,10.1765057 C3.9998,10.1765057 3.9498,9.27856995 3.9498,8.48040482 L3.9498,5.08820298 L2.9998,5.08820298 L2.9998,8.87948739 C2.9998,10.376047 3.7998,11.0744415 5.1998,11.0744415 C6.5998,11.0744415 7.4998,10.3261617 7.4998,8.82960206 L7.4998,5.08820298 L6.5498,5.08820298 L6.5498,8.48040482 Z"></path>
                </g>
                <text id="ksie" font-family="PingFangSC-Regular, PingFang SC" font-size="12" font-weight="normal" fill="#999999">
                    <tspan x="61" y="166">ksie</tspan>
                </text>
                <rect id="Rectangle-19" fill="#313234" x="10" y="112" width="150" height="14"></rect>
                <rect id="Rectangle-19-Copy" fill="#313234" x="10" y="130" width="73" height="14"></rect>
                <rect id="Rectangle-19-Copy-2" fill="#313234" x="10" y="155" width="110" height="15"></rect>
                <g id="cover">
                    <mask id="mask-2" fill="white">
                        <use xlink:href="#path-1"></use>
                    </mask>
                    <use id="pic" fill="#313234" xlink:href="#path-1"></use>
                    <g id="info" mask="url(#mask-2)">
                        <g transform="translate(38.000000, 45.000000)">
                            <path d="M21.292,9.22 C20.836,9.7 20.32,10.18 19.768,10.66 L19.504,9.76 C21.112,8.38 22.192,7.036 22.732,5.716 L19.78,5.716 L19.78,4.888 L21.652,4.888 C21.448,4.348 21.208,3.832 20.932,3.328 L21.76,3.088 C22.048,3.688 22.276,4.252 22.444,4.756 L22.096,4.888 L23.596,4.888 L23.596,5.62 C23.284,6.496 22.804,7.36 22.156,8.212 C22.816,8.62 23.416,9.088 23.944,9.604 L23.452,10.348 C23.02,9.868 22.576,9.46 22.144,9.124 L22.144,14.2 L21.292,14.2 L21.292,9.22 Z M29.584,3.676 L29.584,10.312 L28.708,10.312 L28.708,4.504 L25.336,4.504 L25.336,10.312 L24.484,10.312 L24.484,3.676 L29.584,3.676 Z M29.332,14.008 L28.18,14.008 C27.52,14.008 27.196,13.66 27.196,12.964 L27.196,10.288 L28.036,10.288 L28.036,12.784 C28.036,13.072 28.168,13.216 28.432,13.216 L29.176,13.216 C29.356,13.216 29.476,13.144 29.548,13.024 C29.644,12.868 29.716,12.412 29.752,11.668 L30.556,11.92 C30.484,12.904 30.352,13.516 30.16,13.732 C29.98,13.912 29.704,14.008 29.332,14.008 Z M26.584,5.356 L27.424,5.356 L27.424,7.648 C27.376,9.448 27.064,10.876 26.488,11.944 C25.912,12.94 24.988,13.72 23.692,14.272 L23.224,13.516 C24.484,12.964 25.36,12.244 25.852,11.332 C26.308,10.396 26.56,9.16 26.584,7.648 L26.584,5.356 Z M33.976,3.196 L34.816,3.196 L34.816,4.612 L36.448,4.612 L36.448,5.428 L34.816,5.428 L34.816,6.82 L36.592,6.82 L36.592,7.66 L31.528,7.66 L31.528,6.82 L32.224,6.82 L32.224,4.168 L33.052,4.168 L33.052,6.82 L33.976,6.82 L33.976,3.196 Z M35.956,8.668 L36.712,8.836 C36.184,11.512 34.648,13.276 32.104,14.116 L31.612,13.336 C34.024,12.592 35.476,11.032 35.956,8.668 Z M32.524,8.716 L33.28,9.016 C32.992,10.144 32.632,11.008 32.176,11.608 L31.54,11.056 C31.972,10.468 32.308,9.688 32.524,8.716 Z M33.952,8.128 L34.78,8.128 L34.78,11.26 L33.952,11.26 L33.952,8.128 Z M36.784,3.676 L42.424,3.676 L42.424,4.492 L40.024,4.492 C39.988,4.948 39.94,5.38 39.88,5.812 L41.992,5.812 L41.992,11.512 L41.152,11.512 L41.152,6.616 L38.044,6.616 L38.044,11.512 L37.216,11.512 L37.216,5.812 L38.98,5.812 C39.052,5.38 39.1,4.948 39.136,4.492 L36.784,4.492 L36.784,3.676 Z M40.48,11.572 C41.296,12.256 41.992,12.928 42.556,13.6 L41.92,14.236 C41.428,13.576 40.756,12.868 39.904,12.124 L40.48,11.572 Z M39.148,7.336 L39.988,7.336 L39.988,9.46 C39.964,10.744 39.688,11.764 39.184,12.532 C38.692,13.24 37.888,13.792 36.76,14.188 L36.28,13.444 C37.348,13.06 38.092,12.568 38.512,11.968 C38.908,11.32 39.124,10.492 39.148,9.46 L39.148,7.336 Z M53.932,4.984 L53.932,14.02 L53.092,14.02 L53.092,13.216 L50.836,13.216 L50.836,14.02 L50.008,14.02 L50.008,4.984 L53.932,4.984 Z M50.836,12.388 L53.092,12.388 L53.092,5.812 L50.836,5.812 L50.836,12.388 Z M45.592,3.232 L45.592,5.656 L43.672,5.656 L43.672,6.496 L45.592,6.496 C45.556,9.784 44.836,12.184 43.444,13.684 L44.08,14.248 C45.616,12.616 46.408,10.036 46.456,6.496 L48.052,6.496 C48.028,9.712 47.98,11.644 47.908,12.268 C47.812,12.952 47.452,13.3 46.84,13.3 C46.552,13.3 46.216,13.276 45.832,13.252 L46.048,14.044 C46.48,14.068 46.78,14.092 46.96,14.092 C48.016,14.092 48.604,13.588 48.724,12.604 C48.844,11.716 48.904,9.4 48.904,5.656 L46.456,5.656 L46.456,3.232 L45.592,3.232 Z M56.344,4.168 L58.684,4.168 L58.684,3.16 L59.524,3.16 L59.524,4.168 L61.696,4.168 L61.696,4.96 L59.524,4.96 L59.524,6.064 L62.404,6.064 C62.356,5.164 62.332,4.192 62.332,3.136 L63.172,3.136 C63.172,4.228 63.196,5.2 63.244,6.064 L66.268,6.064 L66.268,6.844 L63.292,6.844 C63.364,7.912 63.46,8.788 63.592,9.46 C63.664,9.808 63.736,10.132 63.808,10.444 C64.24,9.58 64.588,8.572 64.852,7.444 L65.62,7.792 C65.236,9.292 64.744,10.552 64.144,11.56 C64.24,11.836 64.348,12.076 64.456,12.292 C64.768,12.88 65.02,13.18 65.212,13.18 C65.404,13.168 65.572,12.532 65.716,11.26 L66.46,11.656 C66.196,13.252 65.824,14.056 65.32,14.056 C64.912,14.056 64.468,13.684 64,12.964 C63.868,12.76 63.748,12.544 63.652,12.316 C63.028,13.132 62.32,13.744 61.528,14.176 L61.06,13.48 C61.924,13 62.668,12.304 63.28,11.38 C63.112,10.852 62.956,10.276 62.824,9.64 C62.656,8.848 62.524,7.924 62.452,6.844 L55.72,6.844 L55.72,6.064 L58.684,6.064 L58.684,4.96 L56.344,4.96 L56.344,4.168 Z M64.408,3.292 C65.008,3.964 65.476,4.552 65.8,5.056 L65.152,5.512 C64.816,4.972 64.348,4.372 63.748,3.712 L64.408,3.292 Z M61.696,11.752 L61.696,12.52 C61.096,12.592 60.472,12.676 59.824,12.748 L59.824,14.164 L58.972,14.164 L58.972,12.832 C58.108,12.916 57.196,12.988 56.236,13.06 L56.128,12.256 C57.136,12.196 58.084,12.124 58.972,12.052 L58.972,10.984 L56.632,10.984 L56.464,10.276 C56.8,9.868 57.112,9.376 57.4,8.776 L56.08,8.776 L56.08,8.008 L57.736,8.008 C57.856,7.72 57.964,7.408 58.072,7.096 L58.9,7.252 C58.804,7.516 58.708,7.768 58.612,8.008 L61.756,8.008 L61.756,8.776 L58.276,8.776 C58.012,9.328 57.724,9.82 57.424,10.252 L58.972,10.252 L58.972,9.316 L59.824,9.316 L59.824,10.252 L61.648,10.252 L61.648,10.984 L59.824,10.984 L59.824,11.968 C60.484,11.896 61.108,11.824 61.696,11.752 Z M69.976,3.448 C69.436,5.056 68.632,6.34 67.552,7.3 L68.284,7.936 C68.8,7.456 69.268,6.856 69.7,6.148 L72.568,6.148 L72.568,6.928 C72.544,7.504 72.496,8.044 72.4,8.548 L67.756,8.548 L67.756,9.376 L72.22,9.376 C72.04,9.988 71.788,10.54 71.476,11.02 C70.732,12.016 69.412,12.82 67.54,13.444 L68.008,14.176 C69.904,13.564 71.26,12.712 72.088,11.62 C72.508,11.044 72.832,10.36 73.06,9.568 C73.708,11.512 75.34,13.036 77.956,14.164 L78.436,13.408 C75.928,12.448 74.38,11.104 73.792,9.376 L78.256,9.376 L78.256,8.548 L73.3,8.548 C73.384,8.044 73.432,7.504 73.456,6.928 L73.456,6.148 L77.476,6.148 L77.476,5.308 L73.456,5.308 L73.456,3.208 L72.568,3.208 L72.568,5.308 L70.144,5.308 C70.372,4.828 70.588,4.312 70.78,3.76 L69.976,3.448 Z M86.572,5.884 C86.524,6.016 86.488,6.148 86.44,6.268 C86.62,7.876 87.052,9.268 87.724,10.444 C88.348,9.172 88.696,7.648 88.744,5.884 L86.572,5.884 Z M85.9,7.552 C85.66,8.008 85.408,8.392 85.12,8.716 L84.616,8.068 C85.492,6.904 86.056,5.26 86.296,3.148 L87.148,3.256 C87.052,3.904 86.932,4.504 86.8,5.056 L90.316,5.056 L90.316,5.884 L89.548,5.884 C89.488,7.996 89.056,9.772 88.24,11.236 C88.864,12.076 89.62,12.796 90.532,13.396 L90.064,14.212 C89.152,13.6 88.384,12.868 87.76,12.016 C87.16,12.88 86.404,13.6 85.504,14.2 L85.036,13.444 C85.948,12.868 86.692,12.136 87.268,11.272 C86.62,10.192 86.164,8.956 85.9,7.552 Z M84.412,3.676 L84.412,11.188 L83.62,11.188 L83.62,4.48 L80.776,4.48 L80.776,11.188 L79.984,11.188 L79.984,3.676 L84.412,3.676 Z M83.032,11.536 C83.716,12.208 84.292,12.868 84.76,13.528 L84.124,14.152 C83.728,13.504 83.176,12.82 82.468,12.088 L83.032,11.536 Z M81.832,5.38 L82.588,5.38 L82.588,9.04 C82.564,10.432 82.36,11.536 81.964,12.364 C81.556,13.144 80.908,13.744 80.02,14.176 L79.552,13.432 C80.392,13.024 80.992,12.472 81.328,11.8 C81.64,11.092 81.808,10.168 81.832,9.04 L81.832,5.38 Z" id="视频加载失败" fill="#686868"></path>
                            <g id="icon_info" fill="none" opacity="0.699999988" transform="translate(0.000000, 3.000000)">
                                <path d="M6.5,13 C2.91014913,13 0,10.0898509 0,6.5 C0,2.91014913 2.91014913,0 6.5,0 C10.0898509,0 13,2.91014913 13,6.5 C13,10.0898509 10.0898509,13 6.5,13 Z M6.5,12 C9.53756612,12 12,9.53756612 12,6.5 C12,3.46243388 9.53756612,1 6.5,1 C3.46243388,1 1,3.46243388 1,6.5 C1,9.53756612 3.46243388,12 6.5,12 Z M6.5,3 C6.77614237,3 7,3.22385763 7,3.5 L7,7.5 C7,7.77614237 6.77614237,8 6.5,8 C6.22385763,8 6,7.77614237 6,7.5 L6,3.5 C6,3.22385763 6.22385763,3 6.5,3 Z M6.5,10 C6.22385763,10 6,9.77614237 6,9.5 C6,9.22385763 6.22385763,9 6.5,9 C6.77614237,9 7,9.22385763 7,9.5 C7,9.77614237 6.77614237,10 6.5,10 Z" fill="#999999"></path>
                            </g>
                        </g>
                    </g>
                </g>
            </g>
        </g>
    </g>
</svg>